<svg xmlns="http://www.w3.org/2000/svg" width="108" height="64" viewBox="0 0 108 64">
  <g id="Group_736" data-name="Group 736" transform="translate(-2354.753 -2932.376)">
    <path id="Path_3642" data-name="Path 3642" d="M2576.9,2974.588a2.22,2.22,0,0,1-2.22-2.221V2934.6a2.22,2.22,0,0,1,4.441,0v37.771A2.221,2.221,0,0,1,2576.9,2974.588Z" transform="translate(-169.853)" fill="#f60"/>
    <path id="Path_3643" data-name="Path 3643" d="M2488.016,3052.792a2.222,2.222,0,0,1-2.111-1.535l-5.684-17.493a2.221,2.221,0,0,1,4.224-1.373l5.684,17.494a2.222,2.222,0,0,1-2.112,2.907Z" transform="translate(-96.834 -75.872)" fill="#f60"/>
    <path id="Path_3644" data-name="Path 3644" d="M2383.7,3060a2.218,2.218,0,0,1-1.8-.916l-17.945-24.7a2.22,2.22,0,1,1,3.593-2.61l17.945,24.7A2.221,2.221,0,0,1,2383.7,3060Z" transform="translate(-6.76 -75.878)" fill="#f60"/>
    <path id="Path_3645" data-name="Path 3645" d="M2365.336,3171.743a2.211,2.211,0,0,1-1.3-.424l-8.364-6.076a2.221,2.221,0,0,1,2.611-3.593l8.363,6.076a2.221,2.221,0,0,1-1.307,4.017Z" transform="translate(0 -176.298)" fill="#f60"/>
    <path id="Path_3646" data-name="Path 3646" d="M2758.369,3166.227a2.221,2.221,0,0,1-1.307-4.017l12.293-8.932a2.22,2.22,0,0,1,2.61,3.593l-12.293,8.932A2.21,2.21,0,0,1,2758.369,3166.227Z" transform="translate(-310.128 -169.851)" fill="#f60"/>
    <path id="Path_3647" data-name="Path 3647" d="M2709.011,3060.673a2.22,2.22,0,0,1-1.794-3.526l18.436-25.375a2.22,2.22,0,1,1,3.593,2.61l-18.436,25.375A2.217,2.217,0,0,1,2709.011,3060.673Z" transform="translate(-272.118 -75.878)" fill="#f60"/>
    <path id="Path_3648" data-name="Path 3648" d="M2646.482,3053.146a2.222,2.222,0,0,1-2.112-2.907l5.8-17.849a2.22,2.22,0,1,1,4.223,1.372l-5.8,17.849A2.221,2.221,0,0,1,2646.482,3053.146Z" transform="translate(-223.634 -75.871)" fill="#f60"/>
  </g>
</svg>
